<?xml version="1.0" encoding="UTF-8" standalone="no"?>
<svg
   height="175.15234pt"
   viewBox="0 0 175.15235 175.15235"
   width="175.15234pt"
   version="1.1"
   id="svg8"
   sodipodi:docname="budgie.svg"
   inkscape:version="1.1.2 (0a00cf5339, 2022-02-04)"
   xmlns:inkscape="http://www.inkscape.org/namespaces/inkscape"
   xmlns:sodipodi="http://sodipodi.sourceforge.net/DTD/sodipodi-0.dtd"
   xmlns="http://www.w3.org/2000/svg"
   xmlns:svg="http://www.w3.org/2000/svg">
  <defs
     id="defs12" />
  <sodipodi:namedview
     id="namedview10"
     pagecolor="#ffffff"
     bordercolor="#666666"
     borderopacity="1.0"
     inkscape:pageshadow="2"
     inkscape:pageopacity="0.0"
     inkscape:pagecheckerboard="0"
     inkscape:document-units="pt"
     showgrid="false"
     inkscape:zoom="3.7381744"
     inkscape:cx="116.76823"
     inkscape:cy="116.76823"
     inkscape:window-width="2486"
     inkscape:window-height="1376"
     inkscape:window-x="0"
     inkscape:window-y="0"
     inkscape:window-maximized="1"
     inkscape:current-layer="svg8" />
  <path
     d="m111.90625 0c-26.677962 1.2034275-52.902916 11.640592-72.777344 29.537109-23.437048 20.577421-37.6871759 50.938436-39.128906 82.048831v10.61523c1.5251358 31.02699 15.751434 61.28079 39.128906 81.81055 19.802936 17.82502 45.898018 28.22664 72.468754 29.52539h10.6875c31.30103-1.5728 61.79074-16.04982 82.30859-39.80859 17.30076-19.46932 27.34672-44.90862 28.94336-70.83594v-10.83008c-1.27493-31.539333-15.82327-62.340539-39.70117-83.037109-19.48123-17.348421-44.96839-27.4287644-70.94336-29.025391zm31.46484 61.730469c2.31719.019051 4.62303.147137 6.89063.359375 12.8445 1.44173 25.8922 6.410638 34.5664 16.335937 5.88607 6.457996 8.92373 14.952944 10.11524 23.496099 3.72944 1.28683 7.48326 2.50321 11.22461 3.73046-3.41964 1.94217-6.82762 3.89572-10.17578 5.95704 1.04853 17.05053-5.21978 33.98063-15.58594 47.36132-11.2598 11.96279-26.23627 20.22132-42.11914 24.21289-23.22257 5.79076-48.840177 2.23922-69.203126-10.49804-12.856418-8.00696-23.38933-19.9089-29.15625-33.96875-5.075843-13.76197-5.017037-28.84697-2.324218-43.109378 2.251958 8.638468 8.878142 16.038248 17.457031 18.695308 7.887811 2.47836 17.680726 1.5949 23.542969-4.75585 13.297278-12.236844 21.292414-29.488911 36.257814-39.998052 8.2192-5.944157 18.46864-7.900913 28.50976-7.818359z"
     fill="#404552"
     stroke-width="1.33333"
     transform="scale(.75000004)"
     id="path2" />
  <path
     d="m68.53282 89.917494c1.858759-3.306453 5.361806-5.335001 9.061452-5.853309 6.827367-.750653 13.502816 5.549472 12.582372 12.466201-1.19747 4.369864-3.976673 8.882734-8.614635 10.107004-11.83172 2.70772-23.547266-1.61748-34.842805-4.70945 8.319736-1.17066 17.300762-4.432428 21.813616-12.010446z"
     fill="#5294e2"
     id="path4"
     style="fill:#808000" />
  <path
     d="m161.13281 87.037109c-4.13412 0-7.49414 3.360012-7.49414 7.494141 0 4.134128 3.36002 7.49414 7.49414 7.49414 4.13415 0 7.49805-3.360012 7.49805-7.49414 0-1.581774-.49631-3.047531-1.33594-4.257812.12541.294035.19727.616523.19727.955078 0 1.374152-1.14403 2.490233-2.53125 2.490234-1.38723.000007-2.53321-1.116074-2.53321-2.490234s1.14598-2.486336 2.53321-2.486328c.50588 0 .97749.149721 1.375.404296-1.34975-1.30324-3.18266-2.109375-5.20313-2.109375z"
     fill="#404552"
     transform="scale(.75000004)"
     id="path6" />
</svg>
